<svg width="54" height="22" viewBox="0 0 54 22" fill="none" xmlns="http://www.w3.org/2000/svg">
<path d="M27.4915 18.1989C26.4877 18.1989 25.5928 18.0142 24.8068 17.6449C24.0256 17.2756 23.4053 16.7666 22.946 16.1179C22.4867 15.4692 22.2476 14.7259 22.2287 13.8878H25.2116C25.2448 14.4512 25.4815 14.9081 25.9219 15.2585C26.3622 15.6089 26.8854 15.7841 27.4915 15.7841C27.9744 15.7841 28.4006 15.6776 28.7699 15.4645C29.1439 15.2467 29.4351 14.946 29.6435 14.5625C29.8565 14.1742 29.9631 13.7292 29.9631 13.2273C29.9631 12.7159 29.8542 12.2661 29.6364 11.8778C29.4233 11.4896 29.1274 11.1866 28.7486 10.9688C28.3698 10.7509 27.9366 10.6397 27.4489 10.6349C27.0227 10.6349 26.6084 10.7225 26.206 10.8977C25.8082 11.0729 25.4981 11.312 25.2756 11.6151L22.5412 11.125L23.2301 3.45455H32.1222V5.96875H25.7656L25.3892 9.61222H25.4744C25.7301 9.25237 26.116 8.95407 26.6321 8.71733C27.1482 8.48059 27.7259 8.36222 28.3651 8.36222C29.241 8.36222 30.0223 8.56818 30.7088 8.98011C31.3954 9.39205 31.9375 9.95786 32.3352 10.6776C32.733 11.3925 32.9295 12.2164 32.9247 13.1491C32.9295 14.1293 32.7022 15.0005 32.2429 15.7628C31.7884 16.5204 31.1515 17.117 30.3324 17.5526C29.518 17.9834 28.571 18.1989 27.4915 18.1989ZM36.7977 18.1847C36.329 18.1847 35.9265 18.0189 35.5903 17.6875C35.2589 17.3513 35.0932 16.9489 35.0932 16.4801C35.0932 16.0161 35.2589 15.6184 35.5903 15.2869C35.9265 14.9555 36.329 14.7898 36.7977 14.7898C37.2523 14.7898 37.65 14.9555 37.9909 15.2869C38.3318 15.6184 38.5023 16.0161 38.5023 16.4801C38.5023 16.7926 38.4218 17.0791 38.2608 17.3395C38.1045 17.5952 37.8986 17.8011 37.6429 17.9574C37.3872 18.1089 37.1055 18.1847 36.7977 18.1847ZM46.4751 18.3196C45.2535 18.3149 44.2023 18.0142 43.3217 17.4176C42.4457 16.821 41.771 15.9569 41.2975 14.8253C40.8288 13.6937 40.5968 12.3324 40.6015 10.7415C40.6015 9.1553 40.8359 7.8035 41.3046 6.68608C41.7781 5.56865 42.4528 4.71875 43.3288 4.13636C44.2094 3.54924 45.2582 3.25568 46.4751 3.25568C47.6919 3.25568 48.7383 3.54924 49.6143 4.13636C50.495 4.72348 51.172 5.57576 51.6455 6.69318C52.119 7.80587 52.3534 9.1553 52.3487 10.7415C52.3487 12.3371 52.1119 13.7008 51.6384 14.8324C51.1697 15.964 50.4973 16.8281 49.6214 17.4247C48.7454 18.0213 47.6967 18.3196 46.4751 18.3196ZM46.4751 15.7699C47.3084 15.7699 47.9737 15.3509 48.4708 14.5128C48.968 13.6747 49.2142 12.4176 49.2094 10.7415C49.2094 9.63826 49.0958 8.7197 48.8685 7.9858C48.646 7.25189 48.3288 6.70028 47.9168 6.33097C47.5096 5.96165 47.029 5.77699 46.4751 5.77699C45.6465 5.77699 44.9836 6.19129 44.4864 7.01989C43.9893 7.84848 43.7383 9.08901 43.7336 10.7415C43.7336 11.8589 43.8449 12.7917 44.0674 13.5398C44.2947 14.2831 44.6143 14.8419 45.0262 15.2159C45.4381 15.5852 45.9211 15.7699 46.4751 15.7699Z" fill="#09153D"/>
<g clip-path="url(#clip0_1_608)">
<path d="M15.5861 7.83401L10.6434 7.11578L8.43306 2.63706C8.34453 2.45774 8.17229 2.36792 8.00006 2.36792L8.00071 15.2516L12.4208 17.5757C12.7753 17.7618 13.189 17.4611 13.1214 17.0667L12.2773 12.1437L15.8536 8.65751C16.1404 8.37807 15.982 7.89163 15.5861 7.83401Z" fill="#FFB820"/>
<path d="M11.2393 11.8067C11.2393 11.8067 12.0016 16.2503 12.0042 16.2651C12.0016 16.2648 8.06213 15.2671 8.00065 15.2516C8 15.2513 3.57923 17.5757 3.57923 17.5757C3.22478 17.7618 2.8111 17.4611 2.8787 17.0667L3.72281 12.1437L0.146464 8.65751C-0.140377 8.37807 0.0180135 7.89163 0.41399 7.83401L5.35662 7.11578L7.567 2.63706C7.65553 2.45774 7.82777 2.36792 8 2.36792L10.0021 7.99851L14.4789 8.64914L11.2393 11.8067Z" fill="#FFD06A"/>
</g>
<defs>
<clipPath id="clip0_1_608">
<rect width="16" height="16" fill="white" transform="translate(0 2)"/>
</clipPath>
</defs>
</svg>
