<svg width="36" height="36" viewBox="0 0 36 36" fill="none" xmlns="http://www.w3.org/2000/svg">
<path d="M33.6 15.3782C33.6 6.88507 26.8843 0 18.6001 0C10.3519 0 3.68347 6.76469 3.60075 15.2205C3.53831 21.6068 7.27371 27.1056 12.633 29.4904C13.5299 29.8895 14.297 30.5427 14.8466 31.3716L17.5304 35.4195C18.0436 36.1935 19.1563 36.1935 19.6695 35.4195L22.3533 31.3717C22.9012 30.5453 23.6643 29.8914 24.5586 29.4941C29.8782 27.1308 33.6 21.7005 33.6 15.3782Z" fill="url(#paint0_linear_1_629)"/>
<path d="M17.9999 34.7999C17.9122 34.7999 17.692 34.7767 17.5439 34.5612L14.8323 30.6151C14.1947 29.6871 13.3093 28.9612 12.272 28.5159C6.94613 26.2292 3.54248 21.0408 3.60071 15.2978C3.6391 11.5095 5.15185 7.96298 7.86026 5.31146C10.5684 2.66023 14.1698 1.19995 17.9999 1.19995H18C25.9402 1.19995 32.4 7.58992 32.4 15.4442C32.4 21.1269 28.9928 26.2592 23.7199 28.5194C22.6886 28.9615 21.8059 29.6862 21.1676 30.6152L18.456 34.5612C18.3079 34.7767 18.0877 34.7999 17.9999 34.7999Z" fill="url(#paint1_linear_1_629)"/>
<path d="M18 25.2C23.302 25.2 27.6 20.9019 27.6 15.6C27.6 10.2981 23.302 6 18 6C12.6981 6 8.40002 10.2981 8.40002 15.6C8.40002 20.9019 12.6981 25.2 18 25.2Z" fill="url(#paint2_linear_1_629)"/>
<path d="M33.5998 18.6474L24.3867 9.6306C22.9534 8.1348 20.9162 7.19995 18.6556 7.19995C14.317 7.19995 10.7998 10.6422 10.7998 14.8883C10.7998 17.1008 11.755 19.0946 13.2834 20.4973L22.993 29.9999C23.4919 29.4659 24.1005 29.0368 24.7838 28.7471C29.1108 26.912 32.4093 23.1931 33.5998 18.6474Z" fill="url(#paint3_linear_1_629)"/>
<path d="M18.5998 22.7999C22.9076 22.7999 26.3998 19.3078 26.3998 14.9999C26.3998 10.6921 22.9076 7.19995 18.5998 7.19995C14.292 7.19995 10.7998 10.6921 10.7998 14.9999C10.7998 19.3078 14.292 22.7999 18.5998 22.7999Z" fill="#FFF2F1"/>
<defs>
<linearGradient id="paint0_linear_1_629" x1="9.54684" y1="6.09625" x2="40.2214" y2="36.0163" gradientUnits="userSpaceOnUse">
<stop stop-color="#FF7044"/>
<stop offset="1" stop-color="#F92814"/>
</linearGradient>
<linearGradient id="paint1_linear_1_629" x1="14.7499" y1="12.2376" x2="4.23917" y2="1.61192" gradientUnits="userSpaceOnUse">
<stop stop-color="#FF7044" stop-opacity="0"/>
<stop offset="1" stop-color="#FFA425"/>
</linearGradient>
<linearGradient id="paint2_linear_1_629" x1="23.7887" y1="21.3887" x2="4.64186" y2="2.24183" gradientUnits="userSpaceOnUse">
<stop stop-color="#FF7044"/>
<stop offset="1" stop-color="#F92814"/>
</linearGradient>
<linearGradient id="paint3_linear_1_629" x1="28.7441" y1="24.7619" x2="20.3567" y2="16.1918" gradientUnits="userSpaceOnUse">
<stop stop-color="#F92814" stop-opacity="0"/>
<stop offset="1" stop-color="#C1272D"/>
</linearGradient>
</defs>
</svg>
